<svg width="100" height="100" viewBox="0 0 100 100" fill="none" xmlns="http://www.w3.org/2000/svg">
<g id="Vector">
<path d="M70 20C64.4771 20 60 24.4771 60 30C60 35.5228 64.4771 40 70 40C75.5229 40 80 35.5228 80 30C80 24.4771 75.5229 20 70 20Z" fill="#F8F8F7"/>
<path fill-rule="evenodd" clip-rule="evenodd" d="M0 9.99999C0 4.47715 4.47715 0 10 0H90C95.5228 0 100 4.47715 100 9.99999V89.9999C100 90.6902 99.93 91.3643 99.7968 92.0153C99.5997 92.9788 99.2639 93.8918 98.8113 94.7327C97.1235 97.8685 93.8107 100 90 100H10C4.47716 100 0 95.5229 0 90V9.99999ZM32.3282 20.9476L30 18.6194L6.66667 41.9527V9.99999C6.66667 8.15905 8.15905 6.66666 10 6.66666H90C91.8409 6.66666 93.3333 8.15905 93.3333 9.99999V66.6666H78.0476L32.3573 20.9763C32.3476 20.9667 32.3379 20.9571 32.3282 20.9476Z" fill="#F8F8F7"/>
</g>
</svg>
